<?xml version="1.0" encoding="utf-8"?>
<!-- Generator: Adobe Illustrator 16.0.0, SVG Export Plug-In . SVG Version: 6.00 Build 0)  -->
<!DOCTYPE svg PUBLIC "-//W3C//DTD SVG 1.1//EN" "http://www.w3.org/Graphics/SVG/1.1/DTD/svg11.dtd">
<svg version="1.1" id="Layer_1" xmlns="http://www.w3.org/2000/svg" xmlns:xlink="http://www.w3.org/1999/xlink" x="0px" y="0px"
	 width="24px" height="24px" viewBox="0 0 24 24" enable-background="new 0 0 24 24" xml:space="preserve">
<path d="M12,0.5C5.649,0.5,0.5,5.649,0.5,12S5.649,23.5,12,23.5S23.5,18.351,23.5,12S18.351,0.5,12,0.5z M19.354,13H13v6.327
	c0,0.271-0.729,0.488-1,0.488s-1-0.218-1-0.488V13H4.646c-0.271,0-0.49-0.729-0.49-1s0.219-1,0.49-1H11V4.673
	c0-0.271,0.729-0.488,1-0.488s1,0.218,1,0.488V11h6.354c0.271,0,0.49,0.729,0.49,1S19.625,13,19.354,13z"/>
</svg>
